<svg xmlns="http://www.w3.org/2000/svg" viewBox="0 0 14 14">
  <g id="loading" transform="translate(-574 -566)">
    <rect id="Rectangle_77" data-name="Rectangle 77" width="14" height="14" transform="translate(574 566)" fill="none"/>
    <g id="Group_167" data-name="Group 167" transform="translate(-392.197 -21.291)">
      <g id="Path_19" data-name="Path 19" transform="translate(971.476 597.109)" fill="#ffb300">
        <path d="M 2.013842582702637 3.527682542800903 C 1.179112553596497 3.527682542800903 0.5000025629997253 2.848572492599487 0.5000025629997253 2.013842582702637 C 0.5000025629997253 1.055072546005249 0.7477126121520996 0.5000025629997253 2.013842582702637 0.5000025629997253 C 3.117392539978027 0.5000025629997253 3.527682542800903 0.9102925658226013 3.527682542800903 2.013842582702637 C 3.527682542800903 2.848572492599487 2.848572492599487 3.527682542800903 2.013842582702637 3.527682542800903 Z" stroke="none"/>
        <path d="M 2.013842582702637 1.00000262260437 C 1.764922618865967 1.00000262260437 1.323632478713989 1.028972625732422 1.164902687072754 1.223012685775757 C 1.089672565460205 1.314972639083862 1.00000262260437 1.526822566986084 1.00000262260437 2.013842582702637 C 1.00000262260437 2.572872638702393 1.454812526702881 3.027682542800903 2.013842582702637 3.027682542800903 C 2.572872638702393 3.027682542800903 3.027682542800903 2.572872638702393 3.027682542800903 2.013842582702637 C 3.027682542800903 1.53427267074585 2.934772491455078 1.321172475814819 2.856832504272461 1.226842641830444 C 2.693722724914551 1.029472589492798 2.258662700653076 1.00000262260437 2.013842582702637 1.00000262260437 M 2.013842582702637 2.384185791015625e-06 C 3.632312536239624 2.384185791015625e-06 4.027682781219482 0.90163254737854 4.027682781219482 2.013842582702637 C 4.027682781219482 3.126052618026733 3.126052618026733 4.027682781219482 2.013842582702637 4.027682781219482 C 0.90163254737854 4.027682781219482 2.384185791015625e-06 3.126052618026733 2.384185791015625e-06 2.013842582702637 C 2.384185791015625e-06 0.90163254737854 0.3710825443267822 2.384185791015625e-06 2.013842582702637 2.384185791015625e-06 Z" stroke="none" fill="#ffb300"/>
      </g>
      <g id="Path_18" data-name="Path 18" transform="translate(976.765 595.871) rotate(180)" fill="none">
        <path d="M2.072.608a1.65,1.65,0,0,1,2.559,0l1.9,5.242a1.512,1.512,0,0,1-.592,1.592,3.371,3.371,0,0,1-2.46.667A4.4,4.4,0,0,1,.694,7.443,1.443,1.443,0,0,1,.042,5.85Z" stroke="none"/>
        <path d="M 3.351438760757446 9.5367431640625e-07 C 3.889894962310791 9.5367431640625e-07 4.428352355957031 0.2027530670166016 4.631107330322266 0.6082582473754883 L 6.528507709503174 5.850248336791992 C 6.528507709503174 5.850248336791992 6.797167778015137 6.877748489379883 5.936037540435791 7.442688465118408 C 5.074897766113281 8.007617950439453 4.786177635192871 8.109988212585449 3.475687503814697 8.109988212585449 C 2.165187358856201 8.109988212585449 1.635497570037842 8.007617950439453 0.6940474510192871 7.442688465118408 C -0.2474126815795898 6.877748489379883 0.04192733764648438 5.850248336791992 0.04192733764648438 5.850248336791992 L 2.07177734375 0.6082582473754883 C 2.274527549743652 0.2027530670166016 2.812982559204102 9.5367431640625e-07 3.351438760757446 9.5367431640625e-07 Z" stroke="none" fill="#ffb300"/>
      </g>
    </g>
  </g>
</svg>
