<svg xmlns="http://www.w3.org/2000/svg" width="32" height="32" viewBox="0 0 32 32">
  <g id="eye-slash" transform="translate(-1099 -260)">
    <g id="Group_166" data-name="Group 166" transform="translate(368 51)">
      <g id="Group_44" data-name="Group 44" transform="translate(-401 -604)">
        <rect id="Rectangle_13" data-name="Rectangle 13" width="32" height="32" transform="translate(1132 813)" fill="none"/>
      </g>
    </g>
    <g id="Path_20" data-name="Path 20" transform="translate(1115.044 266.031) rotate(45)" fill="#fff">
      <path d="M 1.01091468334198 12.98421669006348 C 1.074303269386292 10.21342277526855 1.453092932701111 7.008931159973145 3.136006593704224 4.743724346160889 C 4.957592010498047 2.291878223419189 8.184630393981934 1.065397262573242 12.99292469024658 0.9998745322227478 C 12.94794750213623 2.951449394226074 12.68716907501221 4.669492244720459 12.21519660949707 6.118314266204834 C 11.71971607208252 7.639324188232422 10.97345638275146 8.912034034729004 9.997156143188477 9.901083946228027 C 8.893346786499023 11.01931476593018 7.490646362304688 11.81112384796143 5.708916664123535 12.32175445556641 C 4.361356735229492 12.70794773101807 2.816815614700317 12.92621231079102 1.01091468334198 12.98421669006348 Z" stroke="none"/>
      <path d="M 11.9453125 2.03502082824707 C 8.057550430297852 2.245359420776367 5.430418968200684 3.332247734069824 3.938706398010254 5.340084075927734 C 2.833847999572754 6.827229499816895 2.233429908752441 8.90239143371582 2.056333541870117 11.928053855896 C 3.322755813598633 11.83360576629639 4.438531875610352 11.64556694030762 5.433416366577148 11.36044406890869 C 7.045576572418213 10.89841461181641 8.305596351623535 10.19125461578369 9.285486221313477 9.198574066162109 C 10.16385650634766 8.308724403381348 10.81115627288818 7.199854373931885 11.26437664031982 5.808574199676514 C 11.62007713317871 4.716652870178223 11.84780120849609 3.452967643737793 11.9453125 2.03502082824707 M 13.40369319915771 -0.002897262573242188 C 13.59888744354248 -0.002897262573242188 13.79668712615967 -0.001102447509765625 13.99747657775879 0.002513885498046875 C 14.14583683013916 11.4357738494873 7.730596542358398 13.9999942779541 -3.814697265625e-06 13.9999942779541 C -3.814697265625e-06 6.396800518035889 1.754206657409668 -0.002897262573242188 13.40369319915771 -0.002897262573242188 Z" stroke="none" fill="#18181d"/>
    </g>
    <g id="Ellipse_35" data-name="Ellipse 35" transform="translate(1112 272)" fill="none" stroke="#18181d" stroke-width="2">
      <circle cx="3" cy="3" r="3" stroke="none"/>
      <circle cx="3" cy="3" r="2" fill="none"/>
    </g>
    <line id="Line_39" data-name="Line 39" x2="11" y2="13" transform="translate(1109.5 268.5)" fill="none" stroke="#fff" stroke-linecap="round" stroke-width="4"/>
    <line id="Line_40" data-name="Line 40" x2="11" y2="13" transform="translate(1109.5 268.5)" fill="none" stroke="#18181d" stroke-linecap="round" stroke-width="2"/>
  </g>
</svg>
