<svg xmlns="http://www.w3.org/2000/svg" width="32" height="42" viewBox="0 0 32 42">
  <g id="Group_100" data-name="Group 100" transform="translate(-792 -210)">
    <g id="Union_1" data-name="Union 1" transform="translate(792 210)" fill="#fff">
      <path d="M 16.00506782531738 40.53741836547852 C 13.70504188537598 38.03386688232422 6.480713367462158 29.92333984375 3.071069955825806 23.23793029785156 L 3.056380033493042 23.20911979675293 L 3.039860010147095 23.18132019042969 C 1.70536994934082 20.93615913391113 1 18.3664493560791 1 15.75 C 1 11.81324005126953 2.558330059051514 8.111189842224121 5.387929916381836 5.325809955596924 C 8.221759796142578 2.536269903182983 11.99053001403809 1 16 1 C 20.00967025756836 1 23.77850914001465 2.536269903182983 26.61227035522461 5.325809955596924 C 29.44174003601074 8.111120223999023 31 11.81317043304443 31 15.75 C 31 17.41057968139648 30.72176933288574 19.04000091552734 30.17304039001465 20.5930004119873 L 30.17106056213379 20.59860038757324 L 30.16914939880371 20.60421943664551 C 27.81291389465332 27.53364372253418 18.65871620178223 37.68827819824219 16.00506782531738 40.53741836547852 Z" stroke="none"/>
      <path d="M 16.01087760925293 39.0580940246582 C 17.21443748474121 37.74253082275391 19.03486824035645 35.6952018737793 20.9542293548584 33.32767105102539 C 25.2726001739502 28.00094985961914 28.13167953491211 23.48994064331055 29.22237968444824 20.28228950500488 L 29.22620964050293 20.27103996276855 L 29.23015975952148 20.25984001159668 C 29.74098968505859 18.81413078308105 30 17.29680061340332 30 15.75 C 30 12.08325958251953 28.5477409362793 8.634300231933594 25.9107494354248 6.038449764251709 C 23.26523017883301 3.4342200756073 19.74552917480469 2 16 2 C 12.25467014312744 2 8.735030174255371 3.4342200756073 6.089439868927002 6.038469791412354 C 3.452330112457275 8.634369850158691 2 12.08333015441895 2 15.75 C 2 18.18671035766602 2.656830072402954 20.5797290802002 3.899470090866089 22.67037963867188 L 3.932519912719727 22.7259693145752 L 3.961899995803833 22.78359031677246 C 7.01302433013916 28.76604270935059 13.20621395111084 35.94761276245117 16.01087760925293 39.0580940246582 M 16 42 C 16 42 6.361999988555908 31.89159965515137 2.180239915847778 23.6922607421875 C 0.794189989566803 21.36034965515137 0 18.64673042297363 0 15.75 C 0 7.051760196685791 7.163760185241699 0 16 0 C 24.83679008483887 0 32 7.051760196685791 32 15.75 C 32 17.5631103515625 31.68865966796875 19.30517959594727 31.11590957641602 20.92614936828613 C 28.25971031188965 29.32592964172363 16 42 16 42 Z" stroke="none" fill="#f99d01"/>
    </g>
    <g id="Ellipse_36" data-name="Ellipse 36" transform="translate(801 220)" fill="#fff" stroke="#f99d01" stroke-width="2">
      <circle cx="6.5" cy="6.5" r="6.5" stroke="none"/>
      <circle cx="6.5" cy="6.5" r="5.5" fill="none"/>
    </g>
  </g>
</svg>
