<svg xmlns="http://www.w3.org/2000/svg" width="154" height="68.999" viewBox="0 0 154 68.999">
  <g id="modal-error" transform="translate(-288 -110)">
    <path id="Subtraction_1" data-name="Subtraction 1" d="M-4072.5-822h-42a4.505,4.505,0,0,1-4.5-4.5,4.506,4.506,0,0,1,4.5-4.5h19a4.506,4.506,0,0,0,4.5-4.5,4.505,4.505,0,0,0-4.5-4.5h-30a4.506,4.506,0,0,1-4.5-4.5,4.506,4.506,0,0,1,4.5-4.5h42a4.505,4.505,0,0,0,4.5-4.5,4.506,4.506,0,0,0-4.5-4.5h-22a4.505,4.505,0,0,1-4.5-4.5,4.5,4.5,0,0,1,4.5-4.5h49a4.5,4.5,0,0,1,4.5,4.5,4.5,4.5,0,0,1-4.5,4.5h19a4.5,4.5,0,0,1,4.5,4.5,4.5,4.5,0,0,1-4.5,4.5h-32a4.506,4.506,0,0,0-4.5,4.5,4.506,4.506,0,0,0,4.5,4.5h2l.136,0,13.864,0a4.505,4.505,0,0,1,4.5,4.5,4.5,4.5,0,0,1-4.5,4.5h-19a4.5,4.5,0,0,1,4.5,4.5A4.5,4.5,0,0,1-4072.5-822Zm-18.4-32.427h0a4.47,4.47,0,0,1,1.26-2.291,4.493,4.493,0,0,1,2.911-1.274A4.516,4.516,0,0,0-4090.9-854.429Z" transform="translate(4418 976.999)" fill="#f6e4e8"/>
    <path id="Subtraction_2" data-name="Subtraction 2" d="M80.5,53h-42a4.5,4.5,0,0,1,0-9h8.925a4.19,4.19,0,0,1-.435-.028A5.074,5.074,0,0,0,47.5,44h10a4.5,4.5,0,0,0,0-9h-30a4.5,4.5,0,0,1,0-9h42a4.5,4.5,0,0,0,0-9h-22a4.5,4.5,0,0,1,0-9h49a4.5,4.5,0,0,1,0,9h19a4.5,4.5,0,1,1,0,9h-32a4.5,4.5,0,1,0,0,9h2l.134,0L99.5,35a4.5,4.5,0,0,1,0,9h-19a4.5,4.5,0,1,1,0,9Z" transform="translate(464.999 186.999) rotate(180)" fill="#f6e4e8"/>
    <g id="Group_177" data-name="Group 177" transform="translate(-636)">
      <g id="Group_78" data-name="Group 78" transform="translate(480 -186)">
        <g id="Group_76" data-name="Group 76" transform="translate(-159 3)">
          <g id="Ellipse_23" data-name="Ellipse 23" transform="translate(654 293)" fill="#fff" stroke="#e54168" stroke-width="2">
            <circle cx="29" cy="29" r="29" stroke="none"/>
            <circle cx="29" cy="29" r="28" fill="none"/>
          </g>
        </g>
        <g id="Group_23" data-name="Group 23" transform="translate(524.184 307.3) rotate(45)">
          <line id="Line_9" data-name="Line 9" y2="24.55" transform="translate(12.406)" fill="none" stroke="#e54168" stroke-linecap="round" stroke-width="2"/>
          <line id="Line_10" data-name="Line 10" y1="24.55" transform="translate(24.55 12.146) rotate(90)" fill="none" stroke="#e54168" stroke-linecap="round" stroke-width="2"/>
        </g>
      </g>
      <g id="Group_170" data-name="Group 170" transform="matrix(-0.087, 0.996, -0.996, -0.087, 1068.856, 130.257)">
        <line id="Line_9-2" data-name="Line 9" y2="5.602" transform="translate(2.831)" fill="none" stroke="#e54168" stroke-linecap="round" stroke-width="2"/>
        <line id="Line_10-2" data-name="Line 10" y1="5.602" transform="translate(5.602 2.771) rotate(90)" fill="none" stroke="#e54168" stroke-linecap="round" stroke-width="2"/>
      </g>
      <g id="Group_171" data-name="Group 171" transform="translate(1050.38 139.388) rotate(72)">
        <line id="Line_9-3" data-name="Line 9" y2="6.156" transform="translate(3.111)" fill="none" stroke="#e54168" stroke-linecap="round" stroke-width="2"/>
        <line id="Line_10-3" data-name="Line 10" y1="6.156" transform="translate(6.156 3.046) rotate(90)" fill="none" stroke="#e54168" stroke-linecap="round" stroke-width="2"/>
      </g>
      <g id="Group_172" data-name="Group 172" transform="translate(969.827 127.195) rotate(92)">
        <line id="Line_9-4" data-name="Line 9" y2="5.11" transform="translate(2.582)" fill="none" stroke="#e54168" stroke-linecap="round" stroke-width="2"/>
        <line id="Line_10-4" data-name="Line 10" y1="5.11" transform="translate(5.11 2.528) rotate(90)" fill="none" stroke="#e54168" stroke-linecap="round" stroke-width="2"/>
      </g>
      <g id="Group_173" data-name="Group 173" transform="translate(966.373 151.365) rotate(72)">
        <line id="Line_9-5" data-name="Line 9" y2="6.817" transform="translate(3.445)" fill="none" stroke="#e54168" stroke-linecap="round" stroke-width="2"/>
        <line id="Line_10-5" data-name="Line 10" y1="6.817" transform="translate(6.817 3.373) rotate(90)" fill="none" stroke="#e54168" stroke-linecap="round" stroke-width="2"/>
      </g>
      <g id="Group_175" data-name="Group 175" transform="translate(951.539 146.068) rotate(125)">
        <line id="Line_9-6" data-name="Line 9" y2="4.817" transform="translate(2.434)" fill="none" stroke="#e54168" stroke-linecap="round" stroke-width="2"/>
        <line id="Line_10-6" data-name="Line 10" y1="4.817" transform="translate(4.817 2.383) rotate(90)" fill="none" stroke="#e54168" stroke-linecap="round" stroke-width="2"/>
      </g>
      <g id="Group_176" data-name="Group 176" transform="translate(1047.054 115.659) rotate(43)">
        <line id="Line_9-7" data-name="Line 9" y2="6.862" transform="translate(3.468)" fill="none" stroke="#e54168" stroke-linecap="round" stroke-width="2"/>
        <line id="Line_10-7" data-name="Line 10" y1="6.862" transform="translate(6.862 3.395) rotate(90)" fill="none" stroke="#e54168" stroke-linecap="round" stroke-width="2"/>
      </g>
    </g>
  </g>
</svg>
