<svg xmlns="http://www.w3.org/2000/svg" width="32" height="32" viewBox="0 0 32 32">
  <g id="paste" transform="translate(3)">
    <rect id="Rectangle_13" data-name="Rectangle 13" width="32" height="32" transform="translate(-3)" fill="none"/>
    <g id="Rectangle_80" data-name="Rectangle 80" transform="translate(5 8)" fill="#fff" stroke="#f99d01" stroke-linecap="round" stroke-linejoin="round" stroke-width="2">
      <rect width="11" height="13" stroke="none"/>
      <rect x="1" y="1" width="9" height="11" fill="none"/>
    </g>
    <g id="Rectangle_81" data-name="Rectangle 81" transform="translate(8 11)" fill="#fff" stroke="#f99d01" stroke-linecap="round" stroke-linejoin="round" stroke-width="2">
      <rect width="11" height="13" stroke="none"/>
      <rect x="1" y="1" width="9" height="11" fill="none"/>
    </g>
    <g id="Group_177" data-name="Group 177" transform="translate(-1010 -574)">
      <g id="Group_28" data-name="Group 28" transform="translate(1031.104 587.518) rotate(133)">
        <g id="Group_27" data-name="Group 27" transform="translate(0 0)">
          <path id="Path_5" data-name="Path 5" d="M.208,0,0,4.891" transform="translate(7.607 0.048)" fill="none" stroke="#fff" stroke-linecap="round" stroke-width="4"/>
          <path id="Path_6" data-name="Path 6" d="M0,1.569,7.733,0" transform="translate(0 0)" fill="none" stroke="#fff" stroke-linecap="round" stroke-width="4"/>
        </g>
      </g>
    </g>
    <g id="Group_193" data-name="Group 193" transform="translate(-1010 -573)">
      <g id="Group_28-2" data-name="Group 28" transform="translate(1031.104 586.518) rotate(133)">
        <g id="Group_27-2" data-name="Group 27" transform="translate(0 0)">
          <path id="Path_5-2" data-name="Path 5" d="M.208,0,0,4.891" transform="translate(7.607 0.048)" fill="none" stroke="#f99d01" stroke-linecap="round" stroke-width="2"/>
          <path id="Path_6-2" data-name="Path 6" d="M0,1.569,7.733,0" transform="translate(0 0)" fill="none" stroke="#f99d01" stroke-linecap="round" stroke-width="2"/>
        </g>
      </g>
    </g>
  </g>
</svg>
