<svg xmlns="http://www.w3.org/2000/svg" width="32.11" height="36" viewBox="0 0 32.11 36">
  <g id="Group_101" data-name="Group 101" transform="translate(-791.945 -330)">
    <g id="Union_2" data-name="Union 2" transform="translate(2239 2895)" fill="#fff" stroke-linecap="round" stroke-linejoin="round">
      <path d="M -1415.999755859375 -2530.000244140625 L -1446.000244140625 -2530.000244140625 L -1446.000244140625 -2550.461181640625 L -1431.000366210938 -2563.66796875 L -1415.999755859375 -2550.461181640625 L -1415.999755859375 -2530.000244140625 Z" stroke="none"/>
      <path d="M -1416.999755859375 -2531.000244140625 L -1416.999755859375 -2550.00927734375 L -1431.000366210938 -2562.33544921875 L -1445.000244140625 -2550.00927734375 L -1445.000244140625 -2531.000244140625 L -1416.999755859375 -2531.000244140625 M -1414.999755859375 -2529.000244140625 L -1447.000244140625 -2529.000244140625 L -1447.000244140625 -2550.9130859375 L -1431.000366210938 -2565.000244140625 L -1414.999755859375 -2550.9130859375 L -1414.999755859375 -2529.000244140625 Z" stroke="none" fill="#f99d01"/>
    </g>
    <path id="Union_3" data-name="Union 3" d="M-1431.5-2555.333-1447-2545l15.5-10.333L-1446-2565l14.5,9.667L-1417-2565l-14.5,9.667L-1416-2545Z" transform="translate(2239.5 2909.5)" fill="none" stroke="#f99d01" stroke-width="2"/>
    <line id="Line_33" data-name="Line 33" x2="28" transform="translate(794.5 344.5)" fill="none" stroke="#f99d01" stroke-width="2"/>
  </g>
</svg>
