<svg xmlns="http://www.w3.org/2000/svg" width="19.996" height="13.515" viewBox="0 0 19.996 13.515">
  <g id="Group_155" data-name="Group 155" transform="translate(-962.207 -38.083)">
    <g id="Group_152" data-name="Group 152" transform="translate(1809.7 2459.281) rotate(90)">
      <path id="Path_16" data-name="Path 16" d="M0,5.142,6.128,0" transform="translate(-2415.576 837.482) rotate(40)" fill="rgba(0,0,0,0)" stroke="#18181d" stroke-linecap="round" stroke-linejoin="round" stroke-width="2"/>
      <g id="Group_145" data-name="Group 145" transform="matrix(-0.788, 0.616, -0.616, -0.788, -2415.383, 845.393)">
        <path id="Path_13" data-name="Path 13" d="M0,0" transform="translate(0 4.178)" fill="rgba(0,0,0,0)" stroke="#18181d" stroke-linecap="round" stroke-linejoin="round" stroke-width="2"/>
        <path id="Path_15" data-name="Path 15" d="M0,0,.057,5.589" transform="translate(1.052 0)" fill="rgba(0,0,0,0)" stroke="#18181d" stroke-linecap="round" stroke-linejoin="round" stroke-width="2"/>
        <path id="Path_14" data-name="Path 14" d="M0,0" transform="translate(1.492 5.328) rotate(41)" fill="rgba(0,0,0,0)" stroke="#18181d" stroke-linecap="round" stroke-linejoin="round" stroke-width="2"/>
      </g>
      <g id="Group_146" data-name="Group 146" transform="matrix(-0.788, -0.616, 0.616, -0.788, -2418.816, 842.323)">
        <path id="Path_13-2" data-name="Path 13" d="M0,0" transform="translate(0 1.396)" fill="rgba(0,0,0,0)" stroke="#18181d" stroke-linecap="round" stroke-linejoin="round" stroke-width="2"/>
        <path id="Path_15-2" data-name="Path 15" d="M0,5.589.057,0" transform="translate(1.167 0)" fill="rgba(0,0,0,0)" stroke="#18181d" stroke-linecap="round" stroke-linejoin="round" stroke-width="2"/>
        <path id="Path_14-2" data-name="Path 14" d="M0,0" transform="translate(1.492 0.247) rotate(-41)" fill="rgba(0,0,0,0)" stroke="#18181d" stroke-linecap="round" stroke-linejoin="round" stroke-width="2"/>
      </g>
    </g>
    <g id="Group_154" data-name="Group 154" transform="matrix(-0.643, -0.766, 0.766, -0.643, 973.493, 50.018)">
      <g id="Group_153" data-name="Group 153">
        <path id="Path_16-2" data-name="Path 16" d="M-.448.073,5.68,5.215" transform="translate(-0.777 2.535)" fill="rgba(0,0,0,0)" stroke="#18181d" stroke-linecap="round" stroke-linejoin="round" stroke-width="2"/>
        <g id="Group_142" data-name="Group 142" transform="translate(-1.204 2.922) rotate(-102)">
          <path id="Path_13-3" data-name="Path 13" d="M0,0" transform="translate(0 1.149)" fill="rgba(0,0,0,0)" stroke="#18181d" stroke-linecap="round" stroke-linejoin="round" stroke-width="2"/>
          <path id="Path_15-3" data-name="Path 15" d="M-.384,5.327-.327-.261" transform="translate(1.435 0)" fill="rgba(0,0,0,0)" stroke="#18181d" stroke-linecap="round" stroke-linejoin="round" stroke-width="2"/>
          <path id="Path_14-3" data-name="Path 14" d="M0,0" transform="translate(1.492 0) rotate(-41)" fill="rgba(0,0,0,0)" stroke="#18181d" stroke-linecap="round" stroke-linejoin="round" stroke-width="2"/>
        </g>
        <g id="Group_143" data-name="Group 143" transform="translate(-0.791 7.545) rotate(-178)">
          <path id="Path_13-4" data-name="Path 13" d="M0,0" transform="translate(0 4.192)" fill="rgba(0,0,0,0)" stroke="#18181d" stroke-linecap="round" stroke-linejoin="round" stroke-width="2"/>
          <path id="Path_15-4" data-name="Path 15" d="M0,0,.057,5.589" transform="translate(1.167 0)" fill="rgba(0,0,0,0)" stroke="#18181d" stroke-linecap="round" stroke-linejoin="round" stroke-width="2"/>
          <path id="Path_14-4" data-name="Path 14" d="M0,0" transform="translate(1.492 5.341) rotate(41)" fill="rgba(0,0,0,0)" stroke="#18181d" stroke-linecap="round" stroke-linejoin="round" stroke-width="2"/>
        </g>
      </g>
    </g>
  </g>
</svg>
